<?xml version="1.0" standalone="no"?>
<!DOCTYPE svg PUBLIC "-//W3C//DTD SVG 20010904//EN" "http://www.w3.org/TR/2001/REC-SVG-20010904/DTD/svg10.dtd">
<!-- Created using Krita: http://krita.org -->
<svg xmlns="http://www.w3.org/2000/svg" 
    xmlns:xlink="http://www.w3.org/1999/xlink"
    xmlns:krita="http://krita.org/namespaces/svg/krita"
    xmlns:sodipodi="http://sodipodi.sourceforge.net/DTD/sodipodi-0.dtd"
    width="1474.56pt"
    height="1474.56pt"
    viewBox="0 0 1474.56 1474.56">
<defs/>
<path id="shape0" transform="matrix(0.99999998943 0 0 0.99999997234 289.44 269.99999994)" fill="#67a3a6" fill-rule="evenodd" stroke="#e4ffff" stroke-width="3.6" stroke-linecap="square" stroke-linejoin="bevel" d="M0 1231.2L131.046 1224C174.29 1216.83 198.814 1190.93 191.657 1142L198.729 663.84C186.691 594.72 218.369 572.117 266.383 577.039C344.889 579.178 429.652 583.394 519.863 577.44C576.854 573.678 594.378 542.732 588.986 472.32C582.599 388.924 587.295 303.993 587.546 207.36C589.74 167.591 617.244 155.775 639.388 155.52L1327.74 152.64C1349.63 155.016 1383.84 120.321 1383.84 106.915L1382.46 0L1382.46 0L0 0Z"/><circle id="shape01" transform="matrix(2.1351352535 0 0 2.1267605582 412.01187574 416.40180345)" r="3.96" cx="3.96" cy="3.96" fill="none" stroke="#eeeeee" stroke-width="2.16" stroke-linecap="square" stroke-linejoin="bevel"/><circle id="shape02" transform="matrix(2.1351352535 0 0 2.1267605582 412.01187574 416.40180345)" r="3.96" cx="3.96" cy="3.96" fill="none" stroke="#eeeeee" stroke-width="2.16" stroke-linecap="square" stroke-linejoin="bevel"/><circle id="shape03" transform="matrix(2.1351352535 0 0 2.1267605582 412.01187574 416.40180345)" r="3.96" cx="3.96" cy="3.96" fill="none" stroke="#eeeeee" stroke-width="2.16" stroke-linecap="square" stroke-linejoin="bevel"/><circle id="shape04" transform="matrix(2.1351351506 0 0 2.1267605257 412.0118766 416.40180372)" r="3.96" cx="3.96" cy="3.96" fill="none" stroke="#eeeeee" stroke-width="2.16" stroke-linecap="square" stroke-linejoin="bevel"/><g id="group0" transform="translate(328.73118001, 301.52181188)" fill="none">
  <g id="group1" fill="none">
   <g id="group2" transform="translate(3.8005383895, 6.567557536)" fill="none">
    <g id="group3" transform="translate(14.560066969, 9.8140182435)" fill="none">
     <path id="shape0" transform="matrix(2.0898661792 0 0 1.995448006 0 -5.6843418861e-14)" fill="none" stroke="#ffffff" stroke-width="2.16" stroke-linecap="square" stroke-linejoin="bevel" d="M2.39457 17.488C-2.03444 28.8296 0.723613 38.5494 2.39457 48.5145C-3.07382 61.9733 1.35026 66.3328 15.6668 61.5927C23.3071 65.7898 34.0786 65.9805 47.9813 62.165C59.8094 66.4681 63.6996 62.0528 59.6519 48.9191C63.6599 40.2707 63.9029 29.4241 60.3811 16.3793C64.5757 2.83574 58.063 1.00102 48.5449 2.45281C34.8927 -1.36267 23.4949 -0.726758 14.3517 4.36055C3.00585 -0.235762 -0.979855 4.14007 2.39457 17.488Z"/>
     <circle id="shape1" transform="matrix(2.0898661792 0 0 1.995448006 12.344220703 14.350250915)" r="1.44" cx="1.44" cy="1.44" fill="none" stroke="#ffffff" stroke-width="2.16" stroke-linecap="square" stroke-linejoin="bevel"/>
     <circle id="shape2" transform="matrix(2.0898661792 0 0 1.995448006 6.6641272682 112.56361028)" r="1.8" cx="1.8" cy="1.8" fill="none" stroke="#ffffff" stroke-width="2.16" stroke-linecap="square" stroke-linejoin="bevel"/>
     <ellipse id="shape3" transform="matrix(2.0898661792 0 0 1.995448006 110.14995789 112.04738529)" rx="1.8" ry="2.16" cx="1.8" cy="2.16" fill="none" stroke="#ffffff" stroke-width="2.16" stroke-linecap="square" stroke-linejoin="bevel"/>
     <ellipse id="shape4" transform="matrix(2.0898661792 0 0 1.995448006 113.15936519 12.913528351)" rx="1.8" ry="2.16" cx="1.8" cy="2.16" fill="none" stroke="#ffffff" stroke-width="2.16" stroke-linecap="square" stroke-linejoin="bevel"/>
    </g>
    <path id="shape5" transform="matrix(-2.1085924938 -0.21439647473 -0.2124295346 2.1281164984 137.34975244 148.18105723)" fill="none" stroke="#ffffff" stroke-width="2.16" stroke-linecap="square" stroke-linejoin="miter" stroke-miterlimit="2" d="M0 0L55.3189 5.06089"/>
    <path id="shape6" transform="matrix(2.119266055 0 0 2.1388888889 5.7221583578 13.465731822)" fill="none" stroke="#fdffff" stroke-width="2.16" stroke-linecap="square" stroke-linejoin="miter" stroke-miterlimit="2" d="M0 0L0.4987 57.274"/>
    <path id="shape7" transform="matrix(2.119266055 0 0 2.1388888889 17.410009375 4.2978138077)" fill="none" stroke="#fdffff" stroke-width="2.16" stroke-linecap="square" stroke-linejoin="miter" stroke-miterlimit="2" d="M0 0.111373C19.8787 -0.297132 36.9723 0.555858 56.815 0.47172"/>
    <path id="shape8" transform="matrix(2.119266055 0 0 2.1388888889 152.53000012 16.607161377)" fill="none" stroke="#fdffff" stroke-width="2.16" stroke-linecap="square" stroke-linejoin="miter" stroke-miterlimit="2" d="M0.33974 0L0 56.0571"/>
    <path id="shape9" transform="matrix(2.119266055 0 0 2.1388888889 0 5.6843418861e-14)" sodipodi:type="arc" sodipodi:rx="1.8" sodipodi:ry="1.44" sodipodi:cx="1.8" sodipodi:cy="1.44" sodipodi:start="6.2831853072" sodipodi:end="6.2831853072" sodipodi:open="true" d="M3.6 1.44C3.6 0.64471 2.79411 -3.04485e-16 1.8 0C0.805887 3.04485e-16 1.21742e-16 0.64471 0 1.44C-1.21742e-16 2.23529 0.805887 2.88 1.8 2.88C2.79411 2.88 3.6 2.23529 3.6 1.44Z" fill="none" stroke="#fdffff" stroke-width="2.16" stroke-linecap="square" stroke-linejoin="bevel"/>
    <circle id="shape10" transform="matrix(2.119266055 0 0 2.1388888889 146.48366972 5.6843418861e-14)" r="1.8" cx="1.8" cy="1.8" fill="none" stroke="#fdffff" stroke-width="2.16" stroke-linecap="square" stroke-linejoin="bevel"/>
    <path id="shape11" transform="matrix(2.119266055 0 0 2.1388888889 4.5771419422 143.21954263)" sodipodi:type="arc" sodipodi:rx="1.44" sodipodi:ry="1.44" sodipodi:cx="1.4402230662" sodipodi:cy="1.4402138348" sodipodi:start="6.2831853072" sodipodi:end="5.7691516092" sodipodi:open="true" d="M2.69413 0.732175C2.33817 0.101784 1.56953 -0.166329 0.898717 0.105908C0.227906 0.378146 -0.136502 1.10609 0.0475233 1.80626C0.231548 2.50642 0.906788 2.96112 1.62477 2.86834C2.34274 2.77556 2.88022 2.16416 2.88022 1.44021" fill="none" stroke="#fdffff" stroke-width="2.16" stroke-linecap="square" stroke-linejoin="bevel"/>
    <ellipse id="shape12" transform="matrix(2.119266055 0 0 2.1388888889 144.95779817 143.22)" rx="1.8" ry="2.16" cx="1.8" cy="2.16" fill="none" stroke="#fdffff" stroke-width="2.16" stroke-linecap="square" stroke-linejoin="bevel"/>
   </g>
   <rect id="shape13" transform="matrix(2.119266055 0 0 2.1388888889 0 5.6843418861e-14)" fill="none" stroke="#ffffff" stroke-width="1.44" stroke-linecap="square" stroke-linejoin="bevel" width="78.48" height="77.76"/>
  </g>
  <g id="group4" transform="translate(25.357596585, 26.2963523)" fill="none">
   <path id="shape14" transform="matrix(2.1351351688 0 0 2.1267605864 -5.6843418861e-14 0)" sodipodi:type="arc" sodipodi:rx="26.64" sodipodi:ry="25.56" sodipodi:cx="26.64" sodipodi:cy="25.56" sodipodi:start="6.2831853072" sodipodi:end="0" sodipodi:open="true" d="M53.28 25.56C53.28 11.4436 41.3529 3.55271e-15 26.64 0C11.9271 -3.55271e-15 7.10543e-15 11.4436 0 25.56C-7.10543e-15 39.6764 11.9271 51.12 26.64 51.12C41.3529 51.12 53.28 39.6764 53.28 25.56Z" fill="none" stroke="#ffffff" stroke-width="2.16" stroke-linecap="square" stroke-linejoin="bevel"/>
   <path id="shape15" transform="matrix(2.1351351688 0 0 2.1267605864 55.681230562 2.8418586314)" fill="none" stroke="#ffffff" stroke-width="2.16" stroke-linecap="square" stroke-linejoin="miter" stroke-miterlimit="2" d="M0 0L5.68434e-14 7.32099"/>
   <path id="shape16" transform="matrix(2.1351351688 0 0 2.1267605864 31.130349048 64.733761279)" fill="none" stroke="#ffffff" stroke-width="2.16" stroke-linecap="square" stroke-linejoin="miter" stroke-miterlimit="2" d="M0 15.042L9.44235 0"/>
   <path id="shape17" transform="matrix(2.1351351688 0 0 2.1267605864 29.977375977 86.005625913)" fill="none" stroke="#ffffff" stroke-width="2.16" stroke-linecap="square" stroke-linejoin="miter" stroke-miterlimit="2" d="M1.62 2.88L0 0"/>
   <path id="shape18" transform="matrix(2.1351351688 0 0 2.1267605864 29.977375977 63.141865665)" fill="none" stroke="#ffffff" stroke-width="1.44" stroke-linecap="square" stroke-linejoin="miter" stroke-miterlimit="2" d="M0 10.7505C2.20031 7.16701 4.40062 3.5835 6.60092 0"/>
   <ellipse id="shape19" transform="matrix(2.1351351688 0 0 2.1267605864 29.198702411 22.201422023)" rx="3.96" ry="3.96" cx="3.96" cy="3.96" fill="none" stroke="#ffffff" stroke-width="2.16" stroke-linecap="square" stroke-linejoin="bevel"/>
   <path id="shape20" transform="matrix(2.1351351688 0 0 2.1267605864 84.551352683 29.34864326)" sodipodi:type="arc" sodipodi:rx="4.32" sodipodi:ry="3.6" sodipodi:cx="-4.32" sodipodi:cy="-3.9079850467e-14" sodipodi:start="6.2831853072" sodipodi:end="1.1546319456e-14" sodipodi:open="true" d="M0 0C0 -1.59872e-14 0 -3.19744e-14 0 -4.79616e-14" fill="none" stroke="#ffffff" stroke-width="2.16" stroke-linecap="square" stroke-linejoin="bevel"/>
   <path id="shape21" transform="matrix(2.1351351688 0 0 2.1267605864 89.341242154 54.051865075)" fill="none" stroke="#ffffff" stroke-width="2.16" stroke-linecap="square" stroke-linejoin="miter" stroke-miterlimit="2" d="M11.0859 1.42109e-14L0 0"/>
   <path id="shape22" transform="matrix(2.1351351688 0 0 2.1267605864 2.3060222546 52.700552801)" fill="none" stroke="#ffffff" stroke-width="2.16" stroke-linecap="square" stroke-linejoin="miter" stroke-miterlimit="2" d="M0 0.18L10.98 0"/>
   <path id="shape23" transform="matrix(-2.1351351688 0 0 2.1267605864 58.967032889 92.481874065)" fill="none" stroke="#fefcff" stroke-width="2.16" stroke-linecap="square" stroke-linejoin="miter" stroke-miterlimit="2" d="M0 7.40557L0.18 0"/>
   <circle id="shape05" transform="matrix(2.1351351506 0 0 2.1267605257 68.956004391 21.40240464)" r="3.96" cx="3.96" cy="3.96" fill="none" stroke="#ffffff" stroke-width="2.16" stroke-linecap="square" stroke-linejoin="bevel"/>
   <rect id="shape24" transform="translate(38.573279281, 47.792883296)" fill="none" stroke="#ffffff" stroke-width="2.448" stroke-linecap="square" stroke-linejoin="bevel" width="40.32" height="15.84"/>
   <path id="shape25" transform="translate(43.65429786, 52.260406073)" fill="none" stroke="#ffffff" stroke-width="2.448" stroke-linecap="square" stroke-linejoin="miter" stroke-miterlimit="2" d="M0.254558 0L0 7.38219"/>
   <path id="shape26" transform="translate(51.811238924, 51.981864021)" fill="none" stroke="#ffffff" stroke-width="2.448" stroke-linecap="square" stroke-linejoin="miter" stroke-miterlimit="2" d="M0 0L0 7.74209"/>
   <path id="shape27" transform="translate(59.011239187, 52.521864041)" fill="none" stroke="#ffffff" stroke-width="2.448" stroke-linecap="square" stroke-linejoin="miter" stroke-miterlimit="2" d="M0 0L0.18 7.02"/>
   <path id="shape28" transform="translate(66.75123947, 52.881864054)" fill="none" stroke="#ffffff" stroke-width="2.448" stroke-linecap="square" stroke-linejoin="miter" stroke-miterlimit="2" d="M0.18 0L0 6.66"/>
   <path id="shape29" transform="translate(72.51123968, 53.421864073)" fill="none" stroke="#ffffff" stroke-width="2.448" stroke-linecap="square" stroke-linejoin="miter" stroke-miterlimit="2" d="M0.18 0L0 6.12"/>
  </g>
 </g><g id="group5" transform="matrix(2.3289474516 0 0 2.8636449713 913.67997046 316.44000404)" fill="none">
  <circle id="shape30" transform="translate(2.16, 0.34124085884)" r="2.52" cx="2.52" cy="2.52" fill="none" stroke="#ffffff" stroke-width="1.008" stroke-linecap="square" stroke-linejoin="bevel"/>
  <circle id="shape06" transform="matrix(1.0000000266 0 0 0.99999995352 0.92785561828 9.0368248337)" r="2.52" cx="2.52" cy="2.52" fill="none" stroke="#ffffff" stroke-width="1.008" stroke-linecap="square" stroke-linejoin="bevel"/>
  <circle id="shape07" transform="matrix(1.0000000266 0 0 0.99999995352 10.982914236 1.7053025658e-13)" r="2.52" cx="2.52" cy="2.52" fill="none" stroke="#ffffff" stroke-width="1.008" stroke-linecap="square" stroke-linejoin="bevel"/>
  <circle id="shape08" transform="matrix(1.0000000266 0 0 0.99999995352 11.364751905 9.1641040567)" r="2.52" cx="2.52" cy="2.52" fill="none" stroke="#ffffff" stroke-width="1.008" stroke-linecap="square" stroke-linejoin="bevel"/>
  <circle id="shape09" transform="matrix(1.0000000266 0 0 0.99999995352 20.01973907 5.6843418861e-14)" r="2.52" cx="2.52" cy="2.52" fill="none" stroke="#ffffff" stroke-width="1.008" stroke-linecap="square" stroke-linejoin="bevel"/>
  <circle id="shape010" transform="matrix(1.0000000266 0 0 0.99999995352 20.528855962 9.2913832797)" r="2.52" cx="2.52" cy="2.52" fill="none" stroke="#ffffff" stroke-width="1.008" stroke-linecap="square" stroke-linejoin="bevel"/>
  <path id="shape31" transform="translate(3.9600289189, 5.2012638581)" fill="none" stroke="#ffffff" stroke-width="1.008" stroke-linecap="square" stroke-linejoin="miter" stroke-miterlimit="2" d="M0.63 0L0 4.32"/>
  <path id="shape32" transform="translate(13.860029275, 4.5712638354)" fill="none" stroke="#ffffff" stroke-width="1.008" stroke-linecap="square" stroke-linejoin="miter" stroke-miterlimit="2" d="M0.18 0L0 5.13"/>
  <path id="shape33" transform="translate(22.680029592, 5.1112638549)" fill="none" stroke="#ffffff" stroke-width="1.008" stroke-linecap="square" stroke-linejoin="miter" stroke-miterlimit="2" d="M0.09 0L0 4.86"/>
  <ellipse id="shape34" transform="translate(0, 6.1012408588)" rx="1.08" ry="0.72" cx="1.08" cy="0.72" fill="none" stroke="#ffffff" stroke-width="1.008" stroke-linecap="square" stroke-linejoin="bevel"/>
  <circle id="shape35" transform="translate(7.92, 5.3812408588)" r="0.72" cx="0.72" cy="0.72" fill="none" stroke="#ffffff" stroke-width="1.008" stroke-linecap="square" stroke-linejoin="bevel"/>
  <ellipse id="shape36" transform="translate(17.28, 5.3812408588)" rx="0.72" ry="1.08" cx="0.72" cy="1.08" fill="none" stroke="#ffffff" stroke-width="1.008" stroke-linecap="square" stroke-linejoin="bevel"/>
  <ellipse id="shape37" transform="translate(25.92, 5.3812408588)" rx="0.72" ry="1.08" cx="0.72" cy="1.08" fill="none" stroke="#ffffff" stroke-width="1.008" stroke-linecap="square" stroke-linejoin="bevel"/>
 </g><g id="group6" transform="matrix(3.1331618262 0 0 4.2228105657 512.99998591 382.31999299)" fill="none">
  <path id="shape38" transform="translate(1.0800000635, 3.2400001904)" fill="none" stroke="#ffffff" stroke-width="1.008" stroke-linecap="square" stroke-linejoin="miter" stroke-miterlimit="2" d="M0 0L40.14 0.36"/>
  <path id="shape39" fill="none" stroke="#ffffff" stroke-width="1.008" stroke-linecap="square" stroke-linejoin="miter" stroke-miterlimit="2" d="M0 0L0.54 6.66"/>
  <path id="shape40" transform="translate(40.727567563, 0.20278589144)" fill="none" stroke="#ffffff" stroke-width="1.008" stroke-linecap="square" stroke-linejoin="miter" stroke-miterlimit="2" d="M0 0L0.636396 6.87308"/>
  <ellipse id="shape41" transform="translate(5.5799580225, 0.53996115306)" rx="3.24" ry="3.24" cx="3.24" cy="3.24" fill="none" stroke="#ffffff" stroke-width="1.008" stroke-linecap="square" stroke-linejoin="bevel"/>
  <ellipse id="shape42" transform="translate(16.379958022, 1.2599611531)" rx="2.16" ry="2.16" cx="2.16" cy="2.16" fill="#ffffff" fill-rule="evenodd" stroke="#ffffff" stroke-width="1.008" stroke-linecap="square" stroke-linejoin="bevel"/>
  <circle id="shape011" transform="matrix(0.99999998938 0 0 1.0000000249 27.842264954 1.1398834237)" r="2.16" cx="2.16" cy="2.16" fill="#ffffff" fill-rule="evenodd" stroke="#ffffff" stroke-width="1.008" stroke-linecap="square" stroke-linejoin="bevel"/>
 </g><g id="group7" transform="matrix(2.9391719479 -0.03607415542 0.03607415542 2.9391719479 762.78705195 738.02748175)" fill="none">
  <ellipse id="shape43" rx="11.88" ry="11.52" cx="11.88" cy="11.52" fill="none" stroke="#ffffff" stroke-width="1.008" stroke-linecap="square" stroke-linejoin="bevel"/>
  <circle id="shape44" transform="translate(5.76, 5.76)" r="5.76" cx="5.76" cy="5.76" fill="none" stroke="#ffffff" stroke-width="1.008" stroke-linecap="square" stroke-linejoin="bevel"/>
  <path id="shape45" transform="translate(9.5400662242, 2.9700677801)" fill="none" stroke="#ffffff" stroke-width="1.008" stroke-linecap="square" stroke-linejoin="miter" stroke-miterlimit="2" d="M0 0.09L3.33 0"/>
  <path id="shape46" transform="translate(20.160066922, 9.1800681883)" fill="none" stroke="#ffffff" stroke-width="1.008" stroke-linecap="square" stroke-linejoin="miter" stroke-miterlimit="2" d="M0 0L0 3.69"/>
  <path id="shape47" transform="translate(2.8800657864, 9.0000681765)" fill="none" stroke="#ffffff" stroke-width="1.008" stroke-linecap="square" stroke-linejoin="miter" stroke-miterlimit="2" d="M0 0L0.27 3.51"/>
  <path id="shape48" transform="translate(8.5500661591, 19.530068869)" fill="none" stroke="#ffffff" stroke-width="1.008" stroke-linecap="square" stroke-linejoin="miter" stroke-miterlimit="2" d="M0 0.27L5.49 0"/>
  <path id="shape49" transform="translate(13.440704134, 11.456691589)" fill="none" stroke="#ffffff" stroke-width="1.008" stroke-linecap="square" stroke-linejoin="miter" stroke-miterlimit="2" d="M3.30926 0L0 0"/>
  <path id="shape50" transform="translate(12.231551518, 13.747717599)" fill="none" stroke="#ffffff" stroke-width="1.008" stroke-linecap="square" stroke-linejoin="miter" stroke-miterlimit="2" d="M2.41831 2.22739L0 0"/>
  <path id="shape51" transform="translate(8.2858956122, 13.493159154)" fill="none" stroke="#ffffff" stroke-width="1.008" stroke-linecap="square" stroke-linejoin="miter" stroke-miterlimit="2" d="M0 2.48194L2.10011 0"/>
  <path id="shape52" transform="translate(5.9312299909, 11.711250035)" fill="none" stroke="#ffffff" stroke-width="1.008" stroke-linecap="square" stroke-linejoin="miter" stroke-miterlimit="2" d="M3.43654 0.127279L0 0"/>
  <path id="shape53" transform="translate(7.8404183325, 7.1928376266)" fill="none" stroke="#ffffff" stroke-width="1.008" stroke-linecap="square" stroke-linejoin="miter" stroke-miterlimit="2" d="M1.97283 2.54558L0 0"/>
  <path id="shape54" transform="translate(11.976993072, 5.9836850103)" fill="none" stroke="#ffffff" stroke-width="1.008" stroke-linecap="square" stroke-linejoin="miter" stroke-miterlimit="2" d="M0.0636396 0L0 3.18198"/>
 </g><g id="group8" transform="matrix(0.80067641308 0 0 0.80067641308 1542.9599991 295.5656612)" fill="none">
  <ellipse id="shape55" transform="matrix(1.4196431791 0 0 1.4000001223 8.5589839845 9.5067841656)" rx="33.12" ry="33.48" cx="33.12" cy="33.48" fill="none" stroke="#ffffff" stroke-width="2.16" stroke-linecap="square" stroke-linejoin="bevel"/>
  <ellipse id="shape012" transform="matrix(1.4196432103 0 0 1.4000001261 16.242824527 17.890825322)" rx="27.047823918" ry="27.455943177" cx="27.047823918" cy="27.455943177" fill="none" stroke="#ffffff" stroke-width="1.008" stroke-linecap="square" stroke-linejoin="bevel"/>
  <g id="group9" fill="none">
   <rect id="shape56" transform="matrix(1.4196431791 0 0 1.4000001223 5.6843418861e-14 0)" fill="none" stroke="#ffffff" stroke-width="2.16" stroke-linecap="square" stroke-linejoin="bevel" width="80.64" height="82.8"/>
   <ellipse id="shape57" transform="matrix(1.4196431791 0 0 1.4000001223 103.70370749 4.3493742862)" rx="2.16" ry="2.52" cx="2.16" cy="2.52" fill="none" stroke="#ffffff" stroke-width="1.008" stroke-linecap="square" stroke-linejoin="bevel"/>
   <ellipse id="shape013" transform="matrix(1.4196431392 0 0 1.4000000624 3.2424554047 3.3245314632)" rx="2.16" ry="2.52" cx="2.16" cy="2.52" fill="none" stroke="#ffffff" stroke-width="1.008" stroke-linecap="square" stroke-linejoin="bevel"/>
   <ellipse id="shape014" transform="matrix(1.4196431392 0 0 1.4000000624 3.8889303815 104.97007578)" rx="2.16" ry="2.52" cx="2.16" cy="2.52" fill="none" stroke="#ffffff" stroke-width="1.008" stroke-linecap="square" stroke-linejoin="bevel"/>
   <ellipse id="shape015" transform="matrix(1.4196431392 0 0 1.4000000624 104.94564224 105.22787773)" rx="2.16" ry="2.52" cx="2.16" cy="2.52" fill="none" stroke="#ffffff" stroke-width="1.008" stroke-linecap="square" stroke-linejoin="bevel"/>
  </g>
  <g id="group10" transform="translate(24.699018998, 40.429253548)" fill="none">
   <path id="shape58" transform="matrix(1.4196431791 0 0 1.4000001223 5.6843418861e-14 15.324419122)" fill="none" stroke="#ffffff" stroke-width="1.008" stroke-linecap="square" stroke-linejoin="miter" stroke-miterlimit="2" d="M0 0L4.58205 1.65463"/>
   <path id="shape59" transform="matrix(1.4196431791 0 0 1.4000001223 25.29675021 0)" fill="none" stroke="#ffffff" stroke-width="1.008" stroke-linecap="square" stroke-linejoin="miter" stroke-miterlimit="2" d="M0.127279 0L0 5.21845"/>
   <path id="shape60" transform="matrix(1.4196431791 0 0 1.4000001223 45.534150378 15.324419122)" fill="none" stroke="#ffffff" stroke-width="1.008" stroke-linecap="square" stroke-linejoin="miter" stroke-miterlimit="2" d="M4.96389 0L0 1.90919"/>
   <path id="shape61" transform="matrix(1.4196431791 0 0 1.4000001223 38.396958331 3.4747874153)" fill="none" stroke="#ffffff" stroke-width="1.008" stroke-linecap="square" stroke-linejoin="miter" stroke-miterlimit="2" d="M2.35467 0L0 3.43654"/>
   <path id="shape62" transform="matrix(1.4196431791 0 0 1.4000001223 10.480185652 4.9894103393)" fill="none" stroke="#ffffff" stroke-width="1.008" stroke-linecap="square" stroke-linejoin="miter" stroke-miterlimit="2" d="M0 0L3.30926 3.30926"/>
   <path id="shape63" transform="matrix(1.4196431791 0 0 1.4000001223 42.010759553 8.2859300129)" fill="none" stroke="#ffffff" stroke-width="1.008" stroke-linecap="square" stroke-linejoin="miter" stroke-miterlimit="2" d="M0 1.40007L1.14551 0"/>
   <path id="shape016" transform="matrix(1.4196431155 0 0 1.4000001736 45.131537056 10.927062706)" fill="none" stroke="#ffffff" stroke-width="1.008" stroke-linecap="square" stroke-linejoin="miter" stroke-miterlimit="2" d="M0 1.40007L1.14551 0"/>
   <path id="shape017" transform="matrix(1.3850649519 -0.30710979456 0.3114188018 1.365900452 34.683044646 3.4774044556)" fill="none" stroke="#ffffff" stroke-width="1.008" stroke-linecap="square" stroke-linejoin="miter" stroke-miterlimit="2" d="M0 1.40007L1.14551 0"/>
   <path id="shape018" transform="matrix(1.3097393298 -0.54011644012 0.54769472546 1.2916170755 29.953163865 3.128288365)" fill="none" stroke="#ffffff" stroke-width="1.008" stroke-linecap="square" stroke-linejoin="miter" stroke-miterlimit="2" d="M0 1.40007L1.14551 0"/>
   <path id="shape019" transform="matrix(0.54149522246 -1.2941565661 1.312314665 0.53400280476 16.667470019 5.3378615727)" fill="none" stroke="#ffffff" stroke-width="1.008" stroke-linecap="square" stroke-linejoin="miter" stroke-miterlimit="2" d="M0 1.40007L1.14551 0"/>
   <path id="shape64" transform="matrix(1.4196431791 0 0 1.4000001223 21.118141159 2.9927070822)" fill="none" stroke="#ffffff" stroke-width="1.008" stroke-linecap="square" stroke-linejoin="miter" stroke-miterlimit="2" d="M0 0L0.225 1.26"/>
   <path id="shape65" transform="matrix(1.4196431791 0 0 1.4000001223 8.2774684712 9.3557077037)" fill="none" stroke="#ffffff" stroke-width="1.008" stroke-linecap="square" stroke-linejoin="miter" stroke-miterlimit="2" d="M0 0L1.305 1.17"/>
   <path id="shape66" transform="matrix(1.4196431791 0 0 1.4000001223 4.6360836792 12.379707999)" fill="none" stroke="#ffffff" stroke-width="1.008" stroke-linecap="square" stroke-linejoin="miter" stroke-miterlimit="2" d="M0 0L1.71 1.125"/>
  </g>
  <rect id="shape67" transform="matrix(1.4196431791 0 0 1.4000001223 43.441384494 28.211949827)" fill="none" stroke="#ffffff" stroke-width="1.44" stroke-linecap="square" stroke-linejoin="bevel" width="15.12" height="2.88"/>
  <path id="shape68" transform="matrix(1.4196431791 0 0 1.4000001223 50.015451528 81.725984273)" fill="none" stroke="#ffffff" stroke-width="1.008" stroke-linecap="square" stroke-linejoin="miter" stroke-miterlimit="2" d="M0 0.18L5.49 0"/>
  <path id="shape69" transform="matrix(1.4196431791 0 0 1.4000001223 49.887683638 85.631984737)" fill="none" stroke="#ffffff" stroke-width="1.008" stroke-linecap="square" stroke-linejoin="miter" stroke-miterlimit="2" d="M0 0L5.94 0.09"/>
  <path id="shape70" transform="matrix(1.4196431791 0 0 1.4000001223 49.350061694 90.959956943)" fill="none" stroke="#ffffff" stroke-width="1.008" stroke-linecap="square" stroke-linejoin="miter" stroke-miterlimit="2" d="M0 0L6.39 0"/>
  <circle id="shape71" transform="matrix(1.4196431791 0 0 1.4000001223 42.477098624 85.883954148)" r="0.72" cx="0.72" cy="0.72" fill="none" stroke="#ffffff" stroke-width="1.008" stroke-linecap="square" stroke-linejoin="bevel"/>
  <circle id="shape72" transform="matrix(1.4196431791 0 0 1.4000001223 63.236169789 85.766908683)" r="0.72" cx="0.72" cy="0.72" fill="none" stroke="#ffffff" stroke-width="1.008" stroke-linecap="square" stroke-linejoin="bevel"/>
  <path id="shape73" transform="matrix(-0.89094085874 1.1052651909 -1.0899720614 -0.87861325263 67.124911339 68.944010772)" sodipodi:type="arc" sodipodi:rx="6.84" sodipodi:ry="6.84" sodipodi:cx="6.840063298" sodipodi:cy="6.8403138555" sodipodi:start="6.2831853072" sodipodi:end="4.8770721001" d="M7.96141 0.0928566C5.13088 -0.377544 2.30763 0.968703 0.891347 3.46417C-0.524934 5.95963 -0.233152 9.07379 1.62204 11.2627C3.47722 13.4517 6.50142 14.25 9.1953 13.262C11.8892 12.274 13.6801 9.70967 13.6801 6.84031L6.84006 6.84031Z" fill="none" stroke="#ffffff" stroke-width="1.008" stroke-linecap="square" stroke-linejoin="bevel"/>
  <ellipse id="shape74" transform="matrix(1.4196431791 0 0 1.4000001223 49.664241718 67.289952978)" rx="2.52" ry="2.52" cx="2.52" cy="2.52" fill="none" stroke="#ffffff" stroke-width="1.008" stroke-linecap="square" stroke-linejoin="bevel"/>
  <g id="group11" transform="translate(30.652246981, 41.727304918)" fill="none">
   <path id="shape75" transform="matrix(1.4196431791 0 0 1.4000001223 3.4106051316e-13 0)" fill="none" stroke="#ffffff" stroke-width="1.008" stroke-linecap="square" stroke-linejoin="miter" stroke-miterlimit="2" d="M14.5098 13.4916L0 0"/>
   <path id="shape76" transform="matrix(1.4196431791 0 0 1.4000001223 5.6843418861e-14 0)" fill="none" stroke="#ffffff" stroke-width="1.008" stroke-linecap="square" stroke-linejoin="miter" stroke-miterlimit="2" d="M0 0L10.0551 16.5463"/>
  </g>
 </g><g id="group12" transform="translate(819.86847073, 710.32575192)" fill="none">
  <path id="shape77" transform="matrix(2.4268986031 0 0 2.403497788 17.037002598 11.032172187)" fill="none" stroke="#ffffff" stroke-width="1.008" stroke-linecap="square" stroke-linejoin="miter" stroke-miterlimit="2" d="M1.53 0.27L0 0"/>
  <path id="shape78" transform="matrix(2.4268986031 0 0 2.403497788 11.358059457 17.954246316)" fill="none" stroke="#ffffff" stroke-width="1.008" stroke-linecap="square" stroke-linejoin="miter" stroke-miterlimit="2" d="M0 0.72L0 0"/>
  <g id="group13" fill="none">
   <circle id="shape79" transform="matrix(2.4268986031 0 0 2.403497788 0 0)" r="4.32" cx="4.32" cy="4.32" fill="none" stroke="#ffffff" stroke-width="1.008" stroke-linecap="square" stroke-linejoin="bevel"/>
   <path id="shape80" transform="matrix(2.4268986031 0 0 2.403497788 9.8291132265 0.43274617637)" fill="none" stroke="#ffffff" stroke-width="1.008" stroke-linecap="square" stroke-linejoin="miter" stroke-miterlimit="2" d="M0.09 0L0 1.44"/>
   <path id="shape81" transform="matrix(2.4268986031 0 0 2.403497788 1.3106985148 10.81585737)" fill="none" stroke="#ffffff" stroke-width="1.008" stroke-linecap="square" stroke-linejoin="miter" stroke-miterlimit="2" d="M0 0L1.17 0.09"/>
   <path id="shape82" transform="matrix(2.4268986031 0 0 2.403497788 15.289635478 4.5427276905)" fill="none" stroke="#ffffff" stroke-width="1.008" stroke-linecap="square" stroke-linejoin="miter" stroke-miterlimit="2" d="M0.9 0L0 0.63"/>
   <path id="shape83" transform="matrix(2.4268986031 0 0 2.403497788 3.0580656352 4.326412874)" fill="none" stroke="#ffffff" stroke-width="1.008" stroke-linecap="square" stroke-linejoin="miter" stroke-miterlimit="2" d="M0 0L1.08 1.17"/>
   <path id="shape84" transform="matrix(2.4268986031 0 0 2.403497788 5.2422745356 14.709524068)" fill="none" stroke="#ffffff" stroke-width="1.008" stroke-linecap="square" stroke-linejoin="miter" stroke-miterlimit="2" d="M0 0.99L0.9 0"/>
   <path id="shape85" transform="translate(14.941157049, 15.244959547)" fill="none" stroke="#ffffff" stroke-width="2.448" stroke-linecap="square" stroke-linejoin="miter" stroke-miterlimit="2" d="M2.67286 2.80014L0 0"/>
  </g>
 </g><g id="group14" transform="matrix(2.12499806 0 0 2.12499806 329.76003527 1397.2368929)" fill="none">
  <path id="shape020" transform="matrix(0.38143050524 -0.9243974852 0.92439752919 0.38143054922 3.3845171318 1.0589065633)" fill="none" stroke="#ffffff" stroke-width="1.008" stroke-linecap="square" stroke-linejoin="miter" stroke-miterlimit="2" d="M0 1.40007L1.14551 0"/>
  <path id="shape021" transform="matrix(0.38143051913 -0.92439742848 0.92439756286 0.38143052582 1.3480860772 1.6634149332)" fill="none" stroke="#ffffff" stroke-width="1.008" stroke-linecap="square" stroke-linejoin="miter" stroke-miterlimit="2" d="M0 1.40007L1.14551 0"/>
  <rect id="shape86" transform="translate(0, 1.7230968811)" fill="none" stroke="#ffffff" stroke-width="2.448" stroke-linecap="square" stroke-linejoin="bevel" width="20.16" height="20.16" rx="6.1665544813" ry="6.1665544813"/>
  <path id="shape87" transform="translate(3.5565840793, 5.6379731396)" fill="none" stroke="#ffffff" stroke-width="1.44" stroke-linecap="square" stroke-linejoin="bevel" d="M0 0L0.509117 11.4551L1.27279 12.4734L11.7097 12.7279"/>
 </g><g id="group0" transform="matrix(2.1249980804 0 0 2.1249980513 326.78133747 1333.1573946)" fill="none">
  <path id="shape022" transform="matrix(0.38143050524 -0.9243974852 0.92439752919 0.38143054922 3.3845171318 1.0589065633)" fill="none" stroke="#ffffff" stroke-width="1.008" stroke-linecap="square" stroke-linejoin="miter" stroke-miterlimit="2" d="M0 1.40007L1.14551 0"/>
  <path id="shape01" transform="matrix(0.38143051913 -0.92439742848 0.92439756286 0.38143052582 1.3480860772 1.6634149332)" fill="none" stroke="#ffffff" stroke-width="1.008" stroke-linecap="square" stroke-linejoin="miter" stroke-miterlimit="2" d="M0 1.40007L1.14551 0"/>
  <rect id="shape023" transform="translate(0, 1.7230968811)" fill="none" stroke="#ffffff" stroke-width="2.448" stroke-linecap="square" stroke-linejoin="bevel" width="20.16" height="20.16" rx="6.1665544813" ry="6.1665544813"/>
  <path id="shape1" transform="translate(3.5565840793, 5.6379731396)" fill="none" stroke="#ffffff" stroke-width="1.44" stroke-linecap="square" stroke-linejoin="bevel" d="M0 0L0.509117 11.4551L1.27279 12.4734L11.7097 12.7279"/>
 </g><g id="group01" transform="matrix(2.1249980804 0 0 2.1249980513 327.50133742 1277.717398)" fill="none">
  <path id="shape024" transform="matrix(0.38143050524 -0.9243974852 0.92439752919 0.38143054922 3.3845171318 1.0589065633)" fill="none" stroke="#ffffff" stroke-width="1.008" stroke-linecap="square" stroke-linejoin="miter" stroke-miterlimit="2" d="M0 1.40007L1.14551 0"/>
  <path id="shape011" transform="matrix(0.38143051913 -0.92439742848 0.92439756286 0.38143052582 1.3480860772 1.6634149332)" fill="none" stroke="#ffffff" stroke-width="1.008" stroke-linecap="square" stroke-linejoin="miter" stroke-miterlimit="2" d="M0 1.40007L1.14551 0"/>
  <rect id="shape025" transform="translate(0, 1.7230968811)" fill="none" stroke="#ffffff" stroke-width="2.448" stroke-linecap="square" stroke-linejoin="bevel" width="20.16" height="20.16" rx="6.1665544813" ry="6.1665544813"/>
  <path id="shape11" transform="translate(3.5565840793, 5.6379731396)" fill="none" stroke="#ffffff" stroke-width="1.44" stroke-linecap="square" stroke-linejoin="bevel" d="M0 0L0.509117 11.4551L1.27279 12.4734L11.7097 12.7279"/>
 </g><g id="group02" transform="matrix(0.99999996136 0 0 1.0000000188 734.95102465 790.62007115)" fill="none">
  <path id="shape026" transform="matrix(2.4268986031 0 0 2.403497788 17.037002598 11.032172187)" fill="none" stroke="#ffffff" stroke-width="1.008" stroke-linecap="square" stroke-linejoin="miter" stroke-miterlimit="2" d="M1.53 0.27L0 0"/>
  <path id="shape12" transform="matrix(2.4268986031 0 0 2.403497788 11.358059457 17.954246316)" fill="none" stroke="#ffffff" stroke-width="1.008" stroke-linecap="square" stroke-linejoin="miter" stroke-miterlimit="2" d="M0 0.72L0 0"/>
  <g id="group1" fill="none">
   <circle id="shape2" transform="matrix(2.4268986031 0 0 2.403497788 0 5.6843418861e-14)" r="4.32" cx="4.32" cy="4.32" fill="none" stroke="#ffffff" stroke-width="1.008" stroke-linecap="square" stroke-linejoin="bevel"/>
   <path id="shape3" transform="matrix(2.4268986031 0 0 2.403497788 9.8291132265 0.43274617637)" fill="none" stroke="#ffffff" stroke-width="1.008" stroke-linecap="square" stroke-linejoin="miter" stroke-miterlimit="2" d="M0.09 0L0 1.44"/>
   <path id="shape4" transform="matrix(2.4268986031 0 0 2.403497788 1.3106985148 10.81585737)" fill="none" stroke="#ffffff" stroke-width="1.008" stroke-linecap="square" stroke-linejoin="miter" stroke-miterlimit="2" d="M0 0L1.17 0.09"/>
   <path id="shape5" transform="matrix(2.4268986031 0 0 2.403497788 15.289635478 4.5427276905)" fill="none" stroke="#ffffff" stroke-width="1.008" stroke-linecap="square" stroke-linejoin="miter" stroke-miterlimit="2" d="M0.9 0L0 0.63"/>
   <path id="shape6" transform="matrix(2.4268986031 0 0 2.403497788 3.0580656352 4.326412874)" fill="none" stroke="#ffffff" stroke-width="1.008" stroke-linecap="square" stroke-linejoin="miter" stroke-miterlimit="2" d="M0 0L1.08 1.17"/>
   <path id="shape7" transform="matrix(2.4268986031 0 0 2.403497788 5.2422745356 14.709524068)" fill="none" stroke="#ffffff" stroke-width="1.008" stroke-linecap="square" stroke-linejoin="miter" stroke-miterlimit="2" d="M0 0.99L0.9 0"/>
   <path id="shape8" transform="translate(14.941157049, 15.244959547)" fill="none" stroke="#ffffff" stroke-width="2.448" stroke-linecap="square" stroke-linejoin="miter" stroke-miterlimit="2" d="M2.67286 2.80014L0 0"/>
  </g>
 </g><g id="group15" transform="translate(837.36, 817.2)" fill="none">
  <ellipse id="shape88" rx="6.12" ry="6.48" cx="6.12" cy="6.48" fill="none" stroke="#ffffff" stroke-width="2.448" stroke-linecap="square" stroke-linejoin="bevel"/>
  <path id="shape89" transform="translate(5.4000143561, 5.5800143981)" fill="none" stroke="#ffffff" stroke-width="2.448" stroke-linecap="square" stroke-linejoin="miter" stroke-miterlimit="2" d="M0 1.98L1.08 0"/>
  <path id="shape90" transform="translate(4.1400143234, 5.2200143888)" fill="none" stroke="#ffffff" stroke-width="2.448" stroke-linecap="square" stroke-linejoin="miter" stroke-miterlimit="2" d="M0 0L3.96 2.16"/>
 </g><g id="group03" transform="matrix(0.24895088892 -0.96851612593 0.96851606719 0.24895087381 647.73501956 841.03156866)" fill="none">
  <ellipse id="shape027" rx="6.12" ry="6.48" cx="6.12" cy="6.48" fill="none" stroke="#ffffff" stroke-width="2.448" stroke-linecap="square" stroke-linejoin="bevel"/>
  <path id="shape13" transform="translate(5.4000143561, 5.5800143981)" fill="none" stroke="#ffffff" stroke-width="2.448" stroke-linecap="square" stroke-linejoin="miter" stroke-miterlimit="2" d="M0 1.98L1.08 0"/>
  <path id="shape21" transform="translate(4.1400143234, 5.2200143888)" fill="none" stroke="#ffffff" stroke-width="2.448" stroke-linecap="square" stroke-linejoin="miter" stroke-miterlimit="2" d="M0 0L3.96 2.16"/>
 </g><g id="group04" transform="matrix(0.24895088567 -0.96851609641 0.96851605455 0.24895086622 485.47132797 858.47983687)" fill="none">
  <ellipse id="shape028" rx="6.12" ry="6.48" cx="6.12" cy="6.48" fill="none" stroke="#ffffff" stroke-width="2.448" stroke-linecap="square" stroke-linejoin="bevel"/>
  <path id="shape14" transform="translate(5.4000143561, 5.5800143981)" fill="none" stroke="#ffffff" stroke-width="2.448" stroke-linecap="square" stroke-linejoin="miter" stroke-miterlimit="2" d="M0 1.98L1.08 0"/>
  <path id="shape22" transform="translate(4.1400143234, 5.2200143888)" fill="none" stroke="#ffffff" stroke-width="2.448" stroke-linecap="square" stroke-linejoin="miter" stroke-miterlimit="2" d="M0 0L3.96 2.16"/>
 </g><g id="group05" transform="matrix(-0.73379484164 -0.67937107015 0.67937103449 -0.73379481946 475.94673099 1003.132624)" fill="none">
  <ellipse id="shape029" rx="6.12" ry="6.48" cx="6.12" cy="6.48" fill="none" stroke="#ffffff" stroke-width="2.448" stroke-linecap="square" stroke-linejoin="bevel"/>
  <path id="shape15" transform="translate(5.4000143561, 5.5800143981)" fill="none" stroke="#ffffff" stroke-width="2.448" stroke-linecap="square" stroke-linejoin="miter" stroke-miterlimit="2" d="M0 1.98L1.08 0"/>
  <path id="shape23" transform="translate(4.1400143234, 5.2200143888)" fill="none" stroke="#ffffff" stroke-width="2.448" stroke-linecap="square" stroke-linejoin="miter" stroke-miterlimit="2" d="M0 0L3.96 2.16"/>
 </g><g id="group06" transform="matrix(-0.73379482412 -0.67937106834 0.67937101827 -0.73379481751 474.74610893 1183.7035159)" fill="none">
  <ellipse id="shape030" rx="6.12" ry="6.48" cx="6.12" cy="6.48" fill="none" stroke="#ffffff" stroke-width="2.448" stroke-linecap="square" stroke-linejoin="bevel"/>
  <path id="shape16" transform="translate(5.4000143561, 5.5800143981)" fill="none" stroke="#ffffff" stroke-width="2.448" stroke-linecap="square" stroke-linejoin="miter" stroke-miterlimit="2" d="M0 1.98L1.08 0"/>
  <path id="shape24" transform="translate(4.1400143234, 5.2200143888)" fill="none" stroke="#ffffff" stroke-width="2.448" stroke-linecap="square" stroke-linejoin="miter" stroke-miterlimit="2" d="M0 0L3.96 2.16"/>
 </g><g id="group07" transform="matrix(-0.73379480173 -0.67937108326 0.67937099754 -0.73379483363 460.8929245 1473.9706266)" fill="none">
  <ellipse id="shape031" rx="6.12" ry="6.48" cx="6.12" cy="6.48" fill="none" stroke="#ffffff" stroke-width="2.448" stroke-linecap="square" stroke-linejoin="bevel"/>
  <path id="shape17" transform="translate(5.4000143561, 5.5800143981)" fill="none" stroke="#ffffff" stroke-width="2.448" stroke-linecap="square" stroke-linejoin="miter" stroke-miterlimit="2" d="M0 1.98L1.08 0"/>
  <path id="shape25" transform="translate(4.1400143234, 5.2200143888)" fill="none" stroke="#ffffff" stroke-width="2.448" stroke-linecap="square" stroke-linejoin="miter" stroke-miterlimit="2" d="M0 0L3.96 2.16"/>
 </g><g id="group08" transform="matrix(-0.73379478624 -0.679371075 0.6793709832 -0.73379482471 862.6707303 641.7015508)" fill="none">
  <ellipse id="shape032" rx="6.12" ry="6.48" cx="6.12" cy="6.48" fill="none" stroke="#ffffff" stroke-width="2.448" stroke-linecap="square" stroke-linejoin="bevel"/>
  <path id="shape18" transform="translate(5.4000143561, 5.5800143981)" fill="none" stroke="#ffffff" stroke-width="2.448" stroke-linecap="square" stroke-linejoin="miter" stroke-miterlimit="2" d="M0 1.98L1.08 0"/>
  <path id="shape26" transform="translate(4.1400143234, 5.2200143888)" fill="none" stroke="#ffffff" stroke-width="2.448" stroke-linecap="square" stroke-linejoin="miter" stroke-miterlimit="2" d="M0 0L3.96 2.16"/>
 </g><g id="group09" transform="matrix(-0.73379482016 -0.679371071 0.6793710146 -0.73379482039 302.30559447 1497.4196514)" fill="none">
  <ellipse id="shape033" rx="6.12" ry="6.48" cx="6.12" cy="6.48" fill="none" stroke="#ffffff" stroke-width="2.448" stroke-linecap="square" stroke-linejoin="bevel"/>
  <path id="shape19" transform="translate(5.4000143561, 5.5800143981)" fill="none" stroke="#ffffff" stroke-width="2.448" stroke-linecap="square" stroke-linejoin="miter" stroke-miterlimit="2" d="M0 1.98L1.08 0"/>
  <path id="shape27" transform="translate(4.1400143234, 5.2200143888)" fill="none" stroke="#ffffff" stroke-width="2.448" stroke-linecap="square" stroke-linejoin="miter" stroke-miterlimit="2" d="M0 0L3.96 2.16"/>
 </g><g id="group010" transform="matrix(-0.73379482016 -0.679371071 0.6793710146 -0.73379482039 304.47129036 1176.623271)" fill="none">
  <ellipse id="shape034" rx="6.12" ry="6.48" cx="6.12" cy="6.48" fill="none" stroke="#ffffff" stroke-width="2.448" stroke-linecap="square" stroke-linejoin="bevel"/>
  <path id="shape110" transform="translate(5.4000143561, 5.5800143981)" fill="none" stroke="#ffffff" stroke-width="2.448" stroke-linecap="square" stroke-linejoin="miter" stroke-miterlimit="2" d="M0 1.98L1.08 0"/>
  <path id="shape28" transform="translate(4.1400143234, 5.2200143888)" fill="none" stroke="#ffffff" stroke-width="2.448" stroke-linecap="square" stroke-linejoin="miter" stroke-miterlimit="2" d="M0 0L3.96 2.16"/>
 </g><path id="shape035" transform="matrix(1.0000000252 0 0 0.9999999599 316.43999964 290.15999894)" fill="none" stroke="#d8ffff" stroke-width="3.6" stroke-linecap="square" stroke-linejoin="bevel" d="M99 1185.84C130.725 1175.42 143.96 1183.37 144.36 1136.16L149.4 630.72C147.324 565.052 177.224 536.764 222.84 534.96C298.865 530.512 382.655 538.457 468.36 532.8C522.505 529.226 543.323 521.215 538.2 454.32C532.133 375.089 532.202 272.527 532.44 180.72C534.525 142.938 566.122 114.723 587.16 114.48L1269 105.84C1289.8 108.097 1328.04 106.337 1328.04 93.6L1327.32 0C693.619 14.4073 441.043 3.6 3.24 3.6L0 1192.68Z"/><g id="group011" transform="matrix(2.8789422993 0 0 2.5403322264 512.78035215 315.36000126)" fill="none">
  <rect id="shape036" transform="translate(0.15778246963, 7.1054273576e-15)" fill="none" stroke="#ffffff" stroke-width="2.448" stroke-linecap="square" stroke-linejoin="bevel" width="16.56" height="7.2"/>
  <rect id="shape037" transform="matrix(1.0000000252 0 0 1.0000000173 21.251883035 0.30253525711)" fill="none" stroke="#ffffff" stroke-width="2.448" stroke-linecap="square" stroke-linejoin="bevel" width="16.56" height="7.2"/>
  <rect id="shape012" transform="matrix(1.0000000252 0 0 1.0000000173 41.871116611 0.42981447671)" fill="none" stroke="#ffffff" stroke-width="2.448" stroke-linecap="square" stroke-linejoin="bevel" width="16.56" height="7.2"/>
  <rect id="shape02" transform="matrix(1.0000000252 0 0 1.0000000173 62.67035226 0.55709367889)" fill="none" stroke="#ffffff" stroke-width="2.448" stroke-linecap="square" stroke-linejoin="bevel" width="16.56" height="7.2"/>
  <rect id="shape03" transform="matrix(1.0000000252 0 0 1.0000000173 0 11.32621102)" fill="none" stroke="#ffffff" stroke-width="2.448" stroke-linecap="square" stroke-linejoin="bevel" width="16.56" height="7.2"/>
  <rect id="shape04" transform="matrix(1.0000000252 0 0 1.0000000173 21.060000915 11.506211028)" fill="none" stroke="#ffffff" stroke-width="2.448" stroke-linecap="square" stroke-linejoin="bevel" width="16.56" height="7.2"/>
  <rect id="shape05" transform="matrix(1.0000000252 0 0 1.0000000173 41.400001798 11.32621102)" fill="none" stroke="#ffffff" stroke-width="2.448" stroke-linecap="square" stroke-linejoin="bevel" width="16.56" height="7.2"/>
  <path id="shape111" transform="translate(2.5908702807, 4.4220252061)" fill="none" stroke="#ffffff" stroke-width="1.008" stroke-linecap="square" stroke-linejoin="miter" stroke-miterlimit="2" d="M0 0L10.946 0.127279"/>
  <path id="shape29" transform="translate(13.536882925, 2.7673953878)" fill="none" stroke="#ffffff" stroke-width="1.008" stroke-linecap="square" stroke-linejoin="miter" stroke-miterlimit="2" d="M0 1.78191L0.254558 0"/>
  <path id="shape31" transform="translate(23.719220268, 3.4037914718)" fill="none" stroke="#ffffff" stroke-width="1.008" stroke-linecap="square" stroke-linejoin="miter" stroke-miterlimit="2" d="M0 0L0 1.78191"/>
  <path id="shape41" transform="translate(23.719220268, 5.1857005068)" fill="none" stroke="#ffffff" stroke-width="1.008" stroke-linecap="square" stroke-linejoin="miter" stroke-miterlimit="2" d="M0 0L10.8187 0"/>
  <path id="shape51" transform="translate(44.527798702, 4.9500137679)" fill="none" stroke="#ffffff" stroke-width="1.008" stroke-linecap="square" stroke-linejoin="miter" stroke-miterlimit="2" d="M0 0.09L10.89 0"/>
  <path id="shape61" transform="translate(44.527798702, 2.8800137238)" fill="none" stroke="#ffffff" stroke-width="1.008" stroke-linecap="square" stroke-linejoin="miter" stroke-miterlimit="2" d="M0 0L10.89 0"/>
  <path id="shape71" transform="translate(64.957813532, 2.9700255791)" fill="none" stroke="#ffffff" stroke-width="1.008" stroke-linecap="square" stroke-linejoin="miter" stroke-miterlimit="2" d="M0 0.09L11.97 0"/>
  <path id="shape81" transform="translate(2.4978242983, 13.77003806)" fill="none" stroke="#ffffff" stroke-width="1.008" stroke-linecap="square" stroke-linejoin="miter" stroke-miterlimit="2" d="M0 0L0.09 2.7"/>
  <path id="shape9" transform="translate(2.5878243036, 16.470038217)" fill="none" stroke="#ffffff" stroke-width="1.008" stroke-linecap="square" stroke-linejoin="miter" stroke-miterlimit="2" d="M0 0L11.61 0"/>
  <path id="shape10" transform="translate(23.737825532, 14.040038076)" fill="none" stroke="#ffffff" stroke-width="1.008" stroke-linecap="square" stroke-linejoin="miter" stroke-miterlimit="2" d="M0 0L11.61 0"/>
  <path id="shape11" transform="translate(35.257826201, 14.040038076)" fill="none" stroke="#ffffff" stroke-width="1.008" stroke-linecap="square" stroke-linejoin="miter" stroke-miterlimit="2" d="M0.09 0L0 2.43"/>
  <path id="shape12" transform="translate(43.702103205, 15.813554737)" fill="none" stroke="#ffffff" stroke-width="1.008" stroke-linecap="square" stroke-linejoin="miter" stroke-miterlimit="2" d="M0 0.0636396L11.2006 0"/>
  <path id="shape13" transform="translate(54.902674958, 14.031645595)" fill="none" stroke="#ffffff" stroke-width="1.008" stroke-linecap="square" stroke-linejoin="miter" stroke-miterlimit="2" d="M0 1.78191L0 0"/>
 </g>
</svg>
